<svg xmlns="http://www.w3.org/2000/svg" id="Layer_1" x="0" y="0" version="1.1" viewBox="0 0 200 100" xml:space="preserve"><style>.st0{fill:#e6332a}.st1{fill:#1e3480}</style><path d="M173.3 37.6c-9.6 0-12.2 7-14.1 15.1-1.9 8.2-2.5 15.2 7 15.2 2.9 0 5.6-.8 7.7-2.5 2.1-1.7 3.6-4.5 4.5-8.3h-7.8c-.6 2.9-1.3 4.9-3.1 4.9-1.9 0-1.5-2.1-1.1-3.6l.9-4h12l.1-.4c2.1-9 3.7-16.4-6.1-16.4m-.4 9.7l-.4 1.9h-3.9l.4-1.9c.6-2.8 1.5-3.6 2.8-3.6 1.4-.1 1.8.7 1.1 3.6M160.6 37.8c-.2-.1-.5-.2-1.5-.2-2.3 0-4.8 2.3-6.3 5h-.2l1-4.3h-8.3l-6.7 28.8h8.6l3.5-15c.8-3.4 2-5.3 5-5.3.9 0 1.3 0 1.6.1.4.1.7.1 1.1.2l2.2-9.3zM143.8 28.3l-1.6 7.3h-8.7l1.6-7.3h8.7zm-17.9 10l.2-1.2c.2-1.1.5-2.2 2.4-2.2h1.2l1.5-6.5c-.7-.1-3.2-.2-4.4-.2-4.8 0-7.6 1.5-8.9 6.6l-.8 3.4h-2.2l-1.5 6.7h2.2l-5.2 22.2h8.7l5.1-22.2h6.7L126 67.2h8.6l6.7-28.8c0-.1-15.4-.1-15.4-.1z" class="st0"/><path d="M104 35.6h8.7l1.6-7.3h-8.7l-1.6 7.3zm7.9 2.7l-6.7 28.8h-8.5l6.7-28.8h8.5zM83.8 67.2h8.8l9-38.8h-8.7zM71 67.2h8.8l9-38.8H80z" class="st1"/><g><path d="M65.2 38.3h8.1l-4.5 19.2c-1.5 7-5.3 10.5-12.5 10.5-7.9 0-9.6-3.2-8.1-10.5l4.5-19.2h8.4l-4.6 20.1c-.5 2.5-.2 3.5 1.3 3.5s2.2-1.1 2.8-3.5l4.6-20.1z" class="st1"/></g><path d="M42.3 28.4l-4.7 20.1-.9-20.1H28l-9 38.8h8.7l4.4-18.6h.1l1.1 18.6h8.8l9-38.8z" class="st1"/></svg>